<?xml version="1.0" encoding="UTF-8" standalone="no"?>
<!-- Created with Inkscape (http://www.inkscape.org/) -->

<svg
   xmlns:dc="http://purl.org/dc/elements/1.1/"
   xmlns:cc="http://creativecommons.org/ns#"
   xmlns:rdf="http://www.w3.org/1999/02/22-rdf-syntax-ns#"
   xmlns:svg="http://www.w3.org/2000/svg"
   xmlns="http://www.w3.org/2000/svg"
   version="1.1"
   width="548.5379"
   height="450.22177"
   id="svg3004"
   xml:space="preserve"><metadata
     id="metadata3010"><rdf:RDF><cc:Work
         rdf:about=""><dc:format>image/svg+xml</dc:format><dc:type
           rdf:resource="http://purl.org/dc/dcmitype/StillImage" /><dc:title></dc:title></cc:Work></rdf:RDF></metadata><defs
     id="defs3008"><clipPath
       id="clipPath3020"><path
         d="M 0,0 612,0 612,792 0,792 0,0 z"
         id="path3022" /></clipPath><clipPath
       id="clipPath3030"><path
         d="m 262.6365,225.4927 77.54679,0 0,258.4786 -77.54679,0 0,-258.4786 z"
         id="path3032" /></clipPath><clipPath
       id="clipPath3040"><path
         d="m 70,555 388,0 0,167 -388,0 0,-167 z"
         id="path3042" /></clipPath><clipPath
       id="clipPath3046"><path
         d="m 72,699 385,0 0,21 -385,0 0,-21 z"
         id="path3048" /></clipPath><clipPath
       id="clipPath3050"><path
         d="m 70,555 388,0 0,167 -388,0 0,-167 z"
         id="path3052" /></clipPath><clipPath
       id="clipPath3078"><path
         d="m 72.175,699.825 95.46187,0 0,20 -95.46187,0 0,-20 z"
         id="path3080" /></clipPath><clipPath
       id="clipPath3092"><path
         d="m 167.9869,699.825 71.89,0 0,20 -71.89,0 0,-20 z"
         id="path3094" /></clipPath><clipPath
       id="clipPath3106"><path
         d="m 240.2269,699.825 71.89,0 0,20 -71.89,0 0,-20 z"
         id="path3108" /></clipPath><clipPath
       id="clipPath3120"><path
         d="m 312.4669,699.825 71.89,0 0,20 -71.89,0 0,-20 z"
         id="path3122" /></clipPath><clipPath
       id="clipPath3134"><path
         d="m 384.7069,699.825 71.89,0 0,20 -71.89,0 0,-20 z"
         id="path3136" /></clipPath><clipPath
       id="clipPath3148"><path
         d="m 72.175,679.075 95.46187,0 0,20 -95.46187,0 0,-20 z"
         id="path3150" /></clipPath><clipPath
       id="clipPath3162"><path
         d="m 167.9869,679.075 71.89,0 0,20 -71.89,0 0,-20 z"
         id="path3164" /></clipPath><clipPath
       id="clipPath3176"><path
         d="m 240.2269,679.075 71.89,0 0,20 -71.89,0 0,-20 z"
         id="path3178" /></clipPath><clipPath
       id="clipPath3190"><path
         d="m 312.4669,679.075 71.89,0 0,20 -71.89,0 0,-20 z"
         id="path3192" /></clipPath><clipPath
       id="clipPath3204"><path
         d="m 384.7069,679.075 71.89,0 0,20 -71.89,0 0,-20 z"
         id="path3206" /></clipPath><clipPath
       id="clipPath3218"><path
         d="m 72.175,658.725 95.46187,0 0,20 -95.46187,0 0,-20 z"
         id="path3220" /></clipPath><clipPath
       id="clipPath3232"><path
         d="m 167.9869,658.725 71.89,0 0,20 -71.89,0 0,-20 z"
         id="path3234" /></clipPath><clipPath
       id="clipPath3246"><path
         d="m 240.2269,658.725 71.89,0 0,20 -71.89,0 0,-20 z"
         id="path3248" /></clipPath><clipPath
       id="clipPath3260"><path
         d="m 312.4669,658.725 71.89,0 0,20 -71.89,0 0,-20 z"
         id="path3262" /></clipPath><clipPath
       id="clipPath3274"><path
         d="m 384.7069,658.725 71.89,0 0,20 -71.89,0 0,-20 z"
         id="path3276" /></clipPath><clipPath
       id="clipPath3288"><path
         d="m 72.175,638.375 95.46187,0 0,20 -95.46187,0 0,-20 z"
         id="path3290" /></clipPath><clipPath
       id="clipPath3302"><path
         d="m 167.9869,638.375 71.89,0 0,20 -71.89,0 0,-20 z"
         id="path3304" /></clipPath><clipPath
       id="clipPath3316"><path
         d="m 240.2269,638.375 71.89,0 0,20 -71.89,0 0,-20 z"
         id="path3318" /></clipPath><clipPath
       id="clipPath3330"><path
         d="m 312.4669,638.375 71.89,0 0,20 -71.89,0 0,-20 z"
         id="path3332" /></clipPath><clipPath
       id="clipPath3344"><path
         d="m 384.7069,638.375 71.89,0 0,20 -71.89,0 0,-20 z"
         id="path3346" /></clipPath><clipPath
       id="clipPath3358"><path
         d="m 72.175,618.025 95.46187,0 0,20 -95.46187,0 0,-20 z"
         id="path3360" /></clipPath><clipPath
       id="clipPath3372"><path
         d="m 167.9869,618.025 71.89,0 0,20 -71.89,0 0,-20 z"
         id="path3374" /></clipPath><clipPath
       id="clipPath3386"><path
         d="m 240.2269,618.025 71.89,0 0,20 -71.89,0 0,-20 z"
         id="path3388" /></clipPath><clipPath
       id="clipPath3400"><path
         d="m 312.4669,618.025 71.89,0 0,20 -71.89,0 0,-20 z"
         id="path3402" /></clipPath><clipPath
       id="clipPath3414"><path
         d="m 384.7069,618.025 71.89,0 0,20 -71.89,0 0,-20 z"
         id="path3416" /></clipPath><clipPath
       id="clipPath3428"><path
         d="m 72.175,597.675 95.46187,0 0,20 -95.46187,0 0,-20 z"
         id="path3430" /></clipPath><clipPath
       id="clipPath3442"><path
         d="m 167.9869,597.675 71.89,0 0,20 -71.89,0 0,-20 z"
         id="path3444" /></clipPath><clipPath
       id="clipPath3456"><path
         d="m 240.2269,597.675 71.89,0 0,20 -71.89,0 0,-20 z"
         id="path3458" /></clipPath><clipPath
       id="clipPath3470"><path
         d="m 312.4669,597.675 71.89,0 0,20 -71.89,0 0,-20 z"
         id="path3472" /></clipPath><clipPath
       id="clipPath3484"><path
         d="m 384.7069,597.675 71.89,0 0,20 -71.89,0 0,-20 z"
         id="path3486" /></clipPath><clipPath
       id="clipPath3498"><path
         d="m 72.175,577.325 95.46187,0 0,20 -95.46187,0 0,-20 z"
         id="path3500" /></clipPath><clipPath
       id="clipPath3512"><path
         d="m 167.9869,577.325 71.89,0 0,20 -71.89,0 0,-20 z"
         id="path3514" /></clipPath><clipPath
       id="clipPath3526"><path
         d="m 240.2269,577.325 71.89,0 0,20 -71.89,0 0,-20 z"
         id="path3528" /></clipPath><clipPath
       id="clipPath3540"><path
         d="m 312.4669,577.325 71.89,0 0,20 -71.89,0 0,-20 z"
         id="path3542" /></clipPath><clipPath
       id="clipPath3554"><path
         d="m 384.7069,577.325 71.89,0 0,20 -71.89,0 0,-20 z"
         id="path3556" /></clipPath><clipPath
       id="clipPath3568"><path
         d="m 72.175,556.975 95.46187,0 0,20 -95.46187,0 0,-20 z"
         id="path3570" /></clipPath><clipPath
       id="clipPath3582"><path
         d="m 167.9869,556.975 71.89,0 0,20 -71.89,0 0,-20 z"
         id="path3584" /></clipPath><clipPath
       id="clipPath3596"><path
         d="m 240.2269,556.975 71.89,0 0,20 -71.89,0 0,-20 z"
         id="path3598" /></clipPath><clipPath
       id="clipPath3610"><path
         d="m 312.4669,556.975 71.89,0 0,20 -71.89,0 0,-20 z"
         id="path3612" /></clipPath><clipPath
       id="clipPath3624"><path
         d="m 384.7069,556.975 71.89,0 0,20 -71.89,0 0,-20 z"
         id="path3626" /></clipPath><clipPath
       id="clipPath3638"><path
         d="m 70,555 388,0 0,167 -388,0 0,-167 z"
         id="path3640" /></clipPath><clipPath
       id="clipPath3706"><path
         d="m 84.80381,181.2 435.32,0 0,340.8 -435.32,0 0,-340.8 z"
         id="path3708" /></clipPath><clipPath
       id="clipPath3758"><path
         d="m 84.80381,225.8728 -1e-5,257.3501 24,0 0,-257.3501 -23.99999,0 z"
         id="path3760" /></clipPath><clipPath
       id="clipPath3764"><path
         d="m 84.80381,181.2 435.32,0 0,340.8 -435.32,0 0,-340.8 z"
         id="path3766" /></clipPath><clipPath
       id="clipPath3778"><path
         d="m 121.536,216.8728 17.07576,0 0,18 -17.07576,0 0,-18 z"
         id="path3780" /></clipPath><clipPath
       id="clipPath3792"><path
         d="m 114.6699,259.7645 23.94184,0 0,18 -23.94184,0 0,-18 z"
         id="path3794" /></clipPath><clipPath
       id="clipPath3806"><path
         d="m 114.6699,302.6562 23.94184,0 0,18 -23.94184,0 0,-18 z"
         id="path3808" /></clipPath><clipPath
       id="clipPath3820"><path
         d="m 114.6699,345.5479 23.94184,0 0,18 -23.94184,0 0,-18 z"
         id="path3822" /></clipPath><clipPath
       id="clipPath3834"><path
         d="m 114.6699,388.4395 23.94184,0 0,18 -23.94184,0 0,-18 z"
         id="path3836" /></clipPath><clipPath
       id="clipPath3848"><path
         d="m 107.8038,431.3312 30.80792,0 0,18 -30.80792,0 0,-18 z"
         id="path3850" /></clipPath><clipPath
       id="clipPath3862"><path
         d="m 107.8038,474.2229 30.80792,0 0,18 -30.80792,0 0,-18 z"
         id="path3864" /></clipPath><clipPath
       id="clipPath3876"><path
         d="m 84.80381,181.2 435.32,0 0,340.8 -435.32,0 0,-340.8 z"
         id="path3878" /></clipPath><clipPath
       id="clipPath3888"><path
         d="m 149.2846,181.2 363.4731,0 0,24 -363.4731,0 0,-24 z"
         id="path3890" /></clipPath><clipPath
       id="clipPath3902"><path
         d="m 144.3515,204.2 9.86608,0 0,18 -9.86608,0 0,-18 z"
         id="path3904" /></clipPath><clipPath
       id="clipPath3916"><path
         d="m 231.7868,204.2 16.73216,0 0,18 -16.73216,0 0,-18 z"
         id="path3918" /></clipPath><clipPath
       id="clipPath3930"><path
         d="m 322.6551,204.2 16.73216,0 0,18 -16.73216,0 0,-18 z"
         id="path3932" /></clipPath><clipPath
       id="clipPath3944"><path
         d="m 413.5234,204.2 16.73216,0 0,18 -16.73216,0 0,-18 z"
         id="path3946" /></clipPath><clipPath
       id="clipPath3958"><path
         d="m 504.3916,204.2 15.73216,0 0,18 -15.73216,0 0,-18 z"
         id="path3960" /></clipPath><clipPath
       id="clipPath3972"><path
         d="m 84.80381,181.2 435.32,0 0,340.8 -435.32,0 0,-340.8 z"
         id="path3974" /></clipPath><clipPath
       id="clipPath3978"><path
         d="m 148,353 366,0 0,3 -366,0 0,-3 z"
         id="path3980" /></clipPath><clipPath
       id="clipPath3982"><path
         d="m 148.0846,353.3479 365.8731,0 0,2.4 -365.8731,0 0,-2.4 z"
         id="path3984" /></clipPath><clipPath
       id="clipPath4004"><path
         d="m 84.80381,181.2 435.32,0 0,340.8 -435.32,0 0,-340.8 z"
         id="path4006" /></clipPath><clipPath
       id="clipPath4010"><path
         d="m 147,224 368,0 0,262 -368,0 0,-262 z"
         id="path4012" /></clipPath><clipPath
       id="clipPath4014"><path
         d="m 147.4846,224.0728 367.0731,0 0,260.9501 -367.0731,0 0,-260.9501 z"
         id="path4016" /></clipPath><clipPath
       id="clipPath4036"><path
         d="m 84.80381,181.2 435.32,0 0,340.8 -435.32,0 0,-340.8 z"
         id="path4038" /></clipPath><clipPath
       id="clipPath4042"><path
         d="m 147,224 368,0 0,186 -368,0 0,-186 z"
         id="path4044" /></clipPath><clipPath
       id="clipPath4046"><path
         d="m 147.4846,224.0728 367.0731,0 0,185.8896 -367.0731,0 0,-185.8896 z"
         id="path4048" /></clipPath><clipPath
       id="clipPath4068"><path
         d="m 84.80381,181.2 435.32,0 0,340.8 -435.32,0 0,-340.8 z"
         id="path4070" /></clipPath><clipPath
       id="clipPath4074"><path
         d="m 147,224 368,0 0,223 -368,0 0,-223 z"
         id="path4076" /></clipPath><clipPath
       id="clipPath4078"><path
         d="m 147.4846,224.0728 367.0731,0 0,222.3476 -367.0731,0 0,-222.3476 z"
         id="path4080" /></clipPath><clipPath
       id="clipPath4100"><path
         d="m 84.80381,181.2 435.32,0 0,340.8 -435.32,0 0,-340.8 z"
         id="path4102" /></clipPath><clipPath
       id="clipPath4106"><path
         d="m 155,510 9,0 0,8 -9,0 0,-8 z"
         id="path4108" /></clipPath><clipPath
       id="clipPath4110"><path
         d="m 155,509 9,0 0,10 -9,0 0,-10 z"
         id="path4112" /></clipPath><clipPath
       id="clipPath4138"><path
         d="m 84.80381,181.2 435.32,0 0,340.8 -435.32,0 0,-340.8 z"
         id="path4140" /></clipPath><clipPath
       id="clipPath4144"><path
         d="m 236,510 10,0 0,8 -10,0 0,-8 z"
         id="path4146" /></clipPath><clipPath
       id="clipPath4148"><path
         d="m 236,509 10,0 0,10 -10,0 0,-10 z"
         id="path4150" /></clipPath><clipPath
       id="clipPath4176"><path
         d="m 84.80381,181.2 435.32,0 0,340.8 -435.32,0 0,-340.8 z"
         id="path4178" /></clipPath><clipPath
       id="clipPath4182"><path
         d="m 323,510 9,0 0,8 -9,0 0,-8 z"
         id="path4184" /></clipPath><clipPath
       id="clipPath4186"><path
         d="m 323,509 9,0 0,10 -9,0 0,-10 z"
         id="path4188" /></clipPath><clipPath
       id="clipPath4214"><path
         d="m 84.80381,181.2 435.32,0 0,340.8 -435.32,0 0,-340.8 z"
         id="path4216" /></clipPath><clipPath
       id="clipPath4220"><path
         d="m 405,510 9,0 0,8 -9,0 0,-8 z"
         id="path4222" /></clipPath><clipPath
       id="clipPath4224"><path
         d="m 405,509 9,0 0,10 -9,0 0,-10 z"
         id="path4226" /></clipPath><clipPath
       id="clipPath4252"><path
         d="m 253.1251,237.9333 102.5537,0 0,21 -102.5537,0 0,-21 z"
         id="path4254" /></clipPath><clipPath
       id="clipPath4266"><path
         d="m 159.8542,181.2 116.003,0 0,-21 -116.003,0 0,21 z"
         id="path4268" /></clipPath><clipPath
       id="clipPath4272"><path
         d="M 0,0 612,0 612,792 0,792 0,0 z"
         id="path4274" /></clipPath><clipPath
       id="clipPath4286"><path
         d="m 212.0557,180.2 0,34.7129 11.6,0 0,-34.7129 -11.6,0 z"
         id="path4288" /></clipPath><clipPath
       id="clipPath4292"><path
         d="M 0,0 612,0 612,792 0,792 0,0 z"
         id="path4294" /></clipPath></defs><g
     transform="matrix(1.25,0,0,-1.25,-105.20352,651.7739)"
     id="g3012"><g
       id="g3014" /><g
       id="g3026"><g
         clip-path="url(#clipPath3030)"
         id="g3028"><path
           d="m 264,483 75,0 0,-257 -75,0 0,257 z"
           id="path3034"
           style="fill:#e9e9e9;fill-opacity:1;fill-rule:nonzero;stroke:none" /></g></g><g
       id="g3702"><g
         clip-path="url(#clipPath3706)"
         id="g3704"><g
           transform="matrix(1,0,0,-1,84.80381,522)"
           id="g3710"><path
             d="m 155.6962,38.99998 0,257.00002"
             id="path3712"
             style="fill:none;stroke:#b8b8b8;stroke-width:0.25;stroke-linecap:butt;stroke-linejoin:miter;stroke-miterlimit:4;stroke-opacity:1;stroke-dasharray:none" /></g><g
           transform="matrix(1,0,0,-1,84.80381,522)"
           id="g3714"><path
             d="m 246.6962,38.99998 0,257.00002"
             id="path3716"
             style="fill:none;stroke:#b8b8b8;stroke-width:0.25;stroke-linecap:butt;stroke-linejoin:miter;stroke-miterlimit:4;stroke-opacity:1;stroke-dasharray:none" /></g><g
           transform="matrix(1,0,0,-1,84.80381,522)"
           id="g3718"><path
             d="m 336.6962,38.99998 0,257.00002"
             id="path3720"
             style="fill:none;stroke:#b8b8b8;stroke-width:0.25;stroke-linecap:butt;stroke-linejoin:miter;stroke-miterlimit:4;stroke-opacity:1;stroke-dasharray:none" /></g><g
           transform="matrix(1,0,0,-1,84.80381,522)"
           id="g3722"><path
             d="m 427.6962,38.99998 0,257.00002"
             id="path3724"
             style="fill:none;stroke:#b8b8b8;stroke-width:0.25;stroke-linecap:butt;stroke-linejoin:miter;stroke-miterlimit:4;stroke-opacity:1;stroke-dasharray:none" /></g><g
           transform="matrix(1,0,0,-1,84.80381,522)"
           id="g3726"><path
             d="m 64.19619,253.5 364.00001,0"
             id="path3728"
             style="fill:none;stroke:#b8b8b8;stroke-width:0.25;stroke-linecap:butt;stroke-linejoin:miter;stroke-miterlimit:4;stroke-opacity:1;stroke-dasharray:none" /></g><g
           transform="matrix(1,0,0,-1,84.80381,522)"
           id="g3730"><path
             d="m 64.19619,210.5 364.00001,0"
             id="path3732"
             style="fill:none;stroke:#b8b8b8;stroke-width:0.25;stroke-linecap:butt;stroke-linejoin:miter;stroke-miterlimit:4;stroke-opacity:1;stroke-dasharray:none" /></g><g
           transform="matrix(1,0,0,-1,84.80381,522)"
           id="g3734"><path
             d="m 64.19619,167.5 364.00001,0"
             id="path3736"
             style="fill:none;stroke:#b8b8b8;stroke-width:0.25;stroke-linecap:butt;stroke-linejoin:miter;stroke-miterlimit:4;stroke-opacity:1;stroke-dasharray:none" /></g><g
           transform="matrix(1,0,0,-1,84.80381,522)"
           id="g3738"><path
             d="m 64.19619,124.5 364.00001,0"
             id="path3740"
             style="fill:none;stroke:#b8b8b8;stroke-width:0.25;stroke-linecap:butt;stroke-linejoin:miter;stroke-miterlimit:4;stroke-opacity:1;stroke-dasharray:none" /></g><g
           transform="matrix(1,0,0,-1,84.80381,522)"
           id="g3742"><path
             d="m 64.19619,81.49998 364.00001,0"
             id="path3744"
             style="fill:none;stroke:#b8b8b8;stroke-width:0.25;stroke-linecap:butt;stroke-linejoin:miter;stroke-miterlimit:4;stroke-opacity:1;stroke-dasharray:none" /></g><g
           transform="matrix(1,0,0,-1,84.80381,522)"
           id="g3746"><path
             d="m 64.19619,38.49998 364.00001,0"
             id="path3748"
             style="fill:none;stroke:#b8b8b8;stroke-width:0.25;stroke-linecap:butt;stroke-linejoin:miter;stroke-miterlimit:4;stroke-opacity:1;stroke-dasharray:none" /></g><g
           transform="matrix(1,0,0,-1,84.80381,522)"
           id="g3750"><path
             d="m 64.69619,296.5 0,-258.00002"
             id="path3752"
             style="fill:none;stroke:#000000;stroke-width:1;stroke-linecap:square;stroke-linejoin:miter;stroke-miterlimit:4;stroke-opacity:1;stroke-dasharray:none" /></g></g></g><g
       id="g3754"><g
         clip-path="url(#clipPath3758)"
         id="g3756"><g
           clip-path="url(#clipPath3764)"
           id="g3762"><g
             transform="matrix(0,1,-1,0,97.68062,318.8168)"
             id="g3768"><text
               transform="scale(1,-1)"
               id="text3770"><tspan
                 x="0 9.8076563 12.825188 20.378523 27.168648 33.958775 37.731365 45.788528 53.341866 56.359394 63.912731"
                 y="0"
                 id="tspan3772"
                 style="font-size:13.58024979px;font-variant:normal;font-weight:normal;writing-mode:lr-tb;fill:#000000;fill-opacity:1;fill-rule:nonzero;stroke:none;font-family:Helvetica;-inkscape-font-specification:Helvetica">Clock Value</tspan></text>
</g></g></g></g><g
       id="g3774"><g
         clip-path="url(#clipPath3778)"
         id="g3776"><g
           transform="translate(123.036,220.7121)"
           id="g3782"><text
             transform="scale(1,-1)"
             id="text3784"><tspan
               x="0 7.209877"
               y="0"
               id="tspan3786"
               style="font-size:12.34568024px;font-variant:normal;font-weight:normal;writing-mode:lr-tb;fill:#000000;fill-opacity:1;fill-rule:nonzero;stroke:none;font-family:Helvetica;-inkscape-font-specification:Helvetica">+0</tspan></text>
</g></g></g><g
       id="g3788"><g
         clip-path="url(#clipPath3792)"
         id="g3790"><g
           transform="translate(116.1699,263.6038)"
           id="g3796"><text
             transform="scale(1,-1)"
             id="text3798"><tspan
               x="0 7.209877 14.076545"
               y="0"
               id="tspan3800"
               style="font-size:12.34568024px;font-variant:normal;font-weight:normal;writing-mode:lr-tb;fill:#000000;fill-opacity:1;fill-rule:nonzero;stroke:none;font-family:Helvetica;-inkscape-font-specification:Helvetica">+20</tspan></text>
</g></g></g><g
       id="g3802"><g
         clip-path="url(#clipPath3806)"
         id="g3804"><g
           transform="translate(116.1699,306.4955)"
           id="g3810"><text
             transform="scale(1,-1)"
             id="text3812"><tspan
               x="0 7.209877 14.076545"
               y="0"
               id="tspan3814"
               style="font-size:12.34568024px;font-variant:normal;font-weight:normal;writing-mode:lr-tb;fill:#000000;fill-opacity:1;fill-rule:nonzero;stroke:none;font-family:Helvetica;-inkscape-font-specification:Helvetica">+40</tspan></text>
</g></g></g><g
       id="g3816"><g
         clip-path="url(#clipPath3820)"
         id="g3818"><g
           transform="translate(116.1699,349.3871)"
           id="g3824"><text
             transform="scale(1,-1)"
             id="text3826"><tspan
               x="0 7.209877 14.076545"
               y="0"
               id="tspan3828"
               style="font-size:12.34568024px;font-variant:normal;font-weight:normal;writing-mode:lr-tb;fill:#000000;fill-opacity:1;fill-rule:nonzero;stroke:none;font-family:Helvetica;-inkscape-font-specification:Helvetica">+60</tspan></text>
</g></g></g><g
       id="g3830"><g
         clip-path="url(#clipPath3834)"
         id="g3832"><g
           transform="translate(116.1699,392.2788)"
           id="g3838"><text
             transform="scale(1,-1)"
             id="text3840"><tspan
               x="0 7.209877 14.076545"
               y="0"
               id="tspan3842"
               style="font-size:12.34568024px;font-variant:normal;font-weight:normal;writing-mode:lr-tb;fill:#000000;fill-opacity:1;fill-rule:nonzero;stroke:none;font-family:Helvetica;-inkscape-font-specification:Helvetica">+80</tspan></text>
</g></g></g><g
       id="g3844"><g
         clip-path="url(#clipPath3848)"
         id="g3846"><g
           transform="translate(109.3038,435.1705)"
           id="g3852"><text
             transform="scale(1,-1)"
             id="text3854"><tspan
               x="0 7.209877 14.076545 20.943211"
               y="0"
               id="tspan3856"
               style="font-size:12.34568024px;font-variant:normal;font-weight:normal;writing-mode:lr-tb;fill:#000000;fill-opacity:1;fill-rule:nonzero;stroke:none;font-family:Helvetica;-inkscape-font-specification:Helvetica">+100</tspan></text>
</g></g></g><g
       id="g3858"><g
         clip-path="url(#clipPath3862)"
         id="g3860"><g
           transform="translate(109.3038,478.0622)"
           id="g3866"><text
             transform="scale(1,-1)"
             id="text3868"><tspan
               x="0 7.209877 14.076545 20.943211"
               y="0"
               id="tspan3870"
               style="font-size:12.34568024px;font-variant:normal;font-weight:normal;writing-mode:lr-tb;fill:#000000;fill-opacity:1;fill-rule:nonzero;stroke:none;font-family:Helvetica;-inkscape-font-specification:Helvetica">+120</tspan></text>
</g></g></g><g
       id="g3872"><g
         clip-path="url(#clipPath3876)"
         id="g3874"><g
           transform="matrix(1,0,0,-1,84.80381,522)"
           id="g3880"><path
             d="m 64.69619,296.5 363.00001,0"
             id="path3882"
             style="fill:none;stroke:#000000;stroke-width:1;stroke-linecap:square;stroke-linejoin:miter;stroke-miterlimit:4;stroke-opacity:1;stroke-dasharray:none" /></g></g></g><g
       id="g3884"><g
         clip-path="url(#clipPath3888)"
         id="g3886"><g
           transform="translate(316.181,184.3232)"
           id="g3892"><text
             transform="scale(1,-1)"
             id="text3894"><tspan
               x="0 7.7977796 10.815311 22.127659"
               y="0"
               id="tspan3896"
               style="font-size:13.58024979px;font-variant:normal;font-weight:normal;writing-mode:lr-tb;fill:#000000;fill-opacity:1;fill-rule:nonzero;stroke:none;font-family:Helvetica;-inkscape-font-specification:Helvetica">Time</tspan></text>
</g></g></g><g
       id="g3898"><g
         clip-path="url(#clipPath3902)"
         id="g3900"><g
           transform="translate(145.8515,208.0393)"
           id="g3906"><text
             transform="scale(1,-1)"
             id="text3908"><tspan
               x="0"
               y="0"
               id="tspan3910"
               style="font-size:12.34568024px;font-variant:normal;font-weight:normal;writing-mode:lr-tb;fill:#000000;fill-opacity:1;fill-rule:nonzero;stroke:none;font-family:Helvetica;-inkscape-font-specification:Helvetica">0</tspan></text>
</g></g></g><g
       id="g3912"><g
         clip-path="url(#clipPath3916)"
         id="g3914"><g
           transform="translate(233.2868,208.0393)"
           id="g3920"><text
             transform="scale(1,-1)"
             id="text3922"><tspan
               x="0 6.8666673"
               y="0"
               id="tspan3924"
               style="font-size:12.34568024px;font-variant:normal;font-weight:normal;writing-mode:lr-tb;fill:#000000;fill-opacity:1;fill-rule:nonzero;stroke:none;font-family:Helvetica;-inkscape-font-specification:Helvetica">20</tspan></text>
</g></g></g><g
       id="g3926"><g
         clip-path="url(#clipPath3930)"
         id="g3928"><g
           transform="translate(324.1551,208.0393)"
           id="g3934"><text
             transform="scale(1,-1)"
             id="text3936"><tspan
               x="0 6.8666673"
               y="0"
               id="tspan3938"
               style="font-size:12.34568024px;font-variant:normal;font-weight:normal;writing-mode:lr-tb;fill:#000000;fill-opacity:1;fill-rule:nonzero;stroke:none;font-family:Helvetica;-inkscape-font-specification:Helvetica">40</tspan></text>
</g></g></g><g
       id="g3940"><g
         clip-path="url(#clipPath3944)"
         id="g3942"><g
           transform="translate(415.0234,208.0393)"
           id="g3948"><text
             transform="scale(1,-1)"
             id="text3950"><tspan
               x="0 6.8666673"
               y="0"
               id="tspan3952"
               style="font-size:12.34568024px;font-variant:normal;font-weight:normal;writing-mode:lr-tb;fill:#000000;fill-opacity:1;fill-rule:nonzero;stroke:none;font-family:Helvetica;-inkscape-font-specification:Helvetica">60</tspan></text>
</g></g></g><g
       id="g3954"><g
         clip-path="url(#clipPath3958)"
         id="g3956"><g
           transform="translate(505.8916,208.0393)"
           id="g3962"><text
             transform="scale(1,-1)"
             id="text3964"><tspan
               x="0 6.8666673"
               y="0"
               id="tspan3966"
               style="font-size:12.34568024px;font-variant:normal;font-weight:normal;writing-mode:lr-tb;fill:#000000;fill-opacity:1;fill-rule:nonzero;stroke:none;font-family:Helvetica;-inkscape-font-specification:Helvetica">80</tspan></text>
</g></g></g><g
       id="g3968"><g
         clip-path="url(#clipPath3972)"
         id="g3970"><g
           id="g3976" /><g
           id="g3986"><g
             clip-path="url(#clipPath3978)"
             id="g3988"><g
               id="g3990" /><g
               id="g3992"><g
                 clip-path="url(#clipPath3982)"
                 id="g3994"><g
                   transform="matrix(1,0,0,-1,149.2846,354.5479)"
                   id="g3996"><path
                     d="m 0,0 68.15121,0 45.43419,0 77.238,0 81.7815,0 190.8234,0"
                     id="path3998"
                     style="fill:none;stroke:#ef951a;stroke-width:2;stroke-linecap:butt;stroke-linejoin:miter;stroke-miterlimit:4;stroke-opacity:1;stroke-dasharray:4, 4;stroke-dashoffset:0" /></g></g></g></g></g></g></g><g
       id="g4000"><g
         clip-path="url(#clipPath4004)"
         id="g4002"><g
           id="g4008" /><g
           id="g4018"><g
             clip-path="url(#clipPath4010)"
             id="g4020"><g
               id="g4022" /><g
               id="g4024"><g
                 clip-path="url(#clipPath4014)"
                 id="g4026"><g
                   transform="matrix(1,0,0,-1,149.2846,566.8617)"
                   id="g4028"><path
                     d="M 0,340.9888 68.15121,308.8201 68.60556,186.3643 113.5854,165.133 190.8234,128.675 272.6049,90.07252 463.4283,0"
                     id="path4030"
                     style="fill:none;stroke:#cf232b;stroke-width:3;stroke-linecap:butt;stroke-linejoin:miter;stroke-miterlimit:4;stroke-opacity:0.75;stroke-dasharray:none" /></g></g></g></g></g></g></g><g
       id="g4032"><g
         clip-path="url(#clipPath4036)"
         id="g4034"><g
           id="g4040" /><g
           id="g4050"><g
             clip-path="url(#clipPath4042)"
             id="g4052"><g
               id="g4054" /><g
               id="g4056"><g
                 clip-path="url(#clipPath4046)"
                 id="g4058"><g
                   transform="matrix(1,0,0,-1,149.2846,408.1625)"
                   id="g4060"><path
                     d="m 0,182.2896 68.15121,-32.1687 45.43419,-21.4459 77.238,0 L 272.6049,90.07252 463.4283,0"
                     id="path4062"
                     style="fill:none;stroke:#70bf41;stroke-width:3;stroke-linecap:butt;stroke-linejoin:miter;stroke-miterlimit:4;stroke-opacity:0.75;stroke-dasharray:none" /></g></g></g></g></g></g></g><g
       id="g4064"><g
         clip-path="url(#clipPath4068)"
         id="g4066"><g
           id="g4072" /><g
           id="g4082"><g
             clip-path="url(#clipPath4074)"
             id="g4084"><g
               id="g4086" /><g
               id="g4088"><g
                 clip-path="url(#clipPath4078)"
                 id="g4090"><g
                   transform="matrix(1,0,0,-1,149.2846,444.6204)"
                   id="g4092"><path
                     d="M 0,218.7476 68.15121,186.5788 113.5854,165.133 190.8234,128.675 272.6049,90.07252 463.4283,0"
                     id="path4094"
                     style="fill:none;stroke:#51a7f9;stroke-width:3;stroke-linecap:butt;stroke-linejoin:miter;stroke-miterlimit:4;stroke-opacity:0.75;stroke-dasharray:none" /></g></g></g></g></g></g></g><g
       id="g4096"><g
         clip-path="url(#clipPath4100)"
         id="g4098"><g
           id="g4104" /><g
           id="g4114"><g
             clip-path="url(#clipPath4106)"
             id="g4116"><g
               id="g4118" /><g
               id="g4120"><g
                 clip-path="url(#clipPath4110)"
                 id="g4122"><g
                   transform="matrix(1,0,0,-1,154.8106,518.7532)"
                   id="g4124"><path
                     d="m 0.1894419,4.753192 9.0000001,0"
                     id="path4126"
                     style="fill:none;stroke:#51a7f9;stroke-width:1.72843897;stroke-linecap:butt;stroke-linejoin:miter;stroke-miterlimit:4;stroke-opacity:0.75;stroke-dasharray:none" /></g></g></g></g></g><g
           transform="translate(171.8458,508.8393)"
           id="g4128"><text
             transform="scale(1,-1)"
             id="text4130"><tspan
               x="0 8.2345686 15.101235 21.967903 25.397533 28.827164 32.256794 35.000004 45.283955"
               y="0"
               id="tspan4132"
               style="font-size:12.34568024px;font-variant:normal;font-weight:normal;writing-mode:lr-tb;fill:#000000;fill-opacity:1;fill-rule:nonzero;stroke:none;font-family:Helvetica;-inkscape-font-specification:Helvetica">Boot time</tspan></text>
</g></g></g><g
       id="g4134"><g
         clip-path="url(#clipPath4138)"
         id="g4136"><g
           id="g4142" /><g
           id="g4152"><g
             clip-path="url(#clipPath4144)"
             id="g4154"><g
               id="g4156" /><g
               id="g4158"><g
                 clip-path="url(#clipPath4148)"
                 id="g4160"><g
                   transform="matrix(1,0,0,-1,236.3156,518.7532)"
                   id="g4162"><path
                     d="m -0.3156324,4.753192 10.0000004,0"
                     id="path4164"
                     style="fill:none;stroke:#70bf41;stroke-width:1.72843897;stroke-linecap:butt;stroke-linejoin:miter;stroke-miterlimit:4;stroke-opacity:0.75;stroke-dasharray:none" /></g></g></g></g></g><g
           transform="translate(253.3509,508.8393)"
           id="g4166"><text
             transform="scale(1,-1)"
             id="text4168"><tspan
               x="0 10.283952 17.15062 24.017286 30.883953 34.313583 41.180252 48.046917 50.790127"
               y="0"
               id="tspan4170"
               style="font-size:12.34568024px;font-variant:normal;font-weight:normal;writing-mode:lr-tb;fill:#000000;fill-opacity:1;fill-rule:nonzero;stroke:none;font-family:Helvetica;-inkscape-font-specification:Helvetica">Monotonic</tspan></text>
</g></g></g><g
       id="g4172"><g
         clip-path="url(#clipPath4176)"
         id="g4174"><g
           id="g4180" /><g
           id="g4190"><g
             clip-path="url(#clipPath4182)"
             id="g4192"><g
               id="g4194" /><g
               id="g4196"><g
                 clip-path="url(#clipPath4186)"
                 id="g4198"><g
                   transform="matrix(1,0,0,-1,322.6312,518.7532)"
                   id="g4200"><path
                     d="m 0.3688182,4.753192 8.9999998,0"
                     id="path4202"
                     style="fill:none;stroke:#cf232b;stroke-width:1.72843897;stroke-linecap:butt;stroke-linejoin:miter;stroke-miterlimit:4;stroke-opacity:0.75;stroke-dasharray:none" /></g></g></g></g></g><g
           transform="translate(339.6664,508.8393)"
           id="g4204"><text
             transform="scale(1,-1)"
             id="text4206"><tspan
               x="0 8.91605 15.782718 22.649385 25.392595 29.503706 32.933334 35.676544 45.960499"
               y="0"
               id="tspan4208"
               style="font-size:12.34568024px;font-variant:normal;font-weight:normal;writing-mode:lr-tb;fill:#000000;fill-opacity:1;fill-rule:nonzero;stroke:none;font-family:Helvetica;-inkscape-font-specification:Helvetica">Real-time</tspan></text>
</g></g></g><g
       id="g4210"><g
         clip-path="url(#clipPath4214)"
         id="g4212"><g
           id="g4218" /><g
           id="g4228"><g
             clip-path="url(#clipPath4220)"
             id="g4230"><g
               id="g4232" /><g
               id="g4234"><g
                 clip-path="url(#clipPath4224)"
                 id="g4236"><g
                   transform="matrix(1,0,0,-1,404.8114,518.7532)"
                   id="g4238"><path
                     d="m 0.1885895,4.753192 9.0000005,0"
                     id="path4240"
                     style="fill:none;stroke:#ef951a;stroke-width:1.72843897;stroke-linecap:butt;stroke-linejoin:miter;stroke-miterlimit:4;stroke-opacity:1;stroke-dasharray:3.456878, 3.456878;stroke-dashoffset:0" /></g></g></g></g></g><g
           transform="translate(421.8467,508.8393)"
           id="g4242"><text
             transform="scale(1,-1)"
             id="text4244"><tspan
               x="0 7.0888896 9.8320999 20.116051 26.982718 31.09383 34.52346 42.75803 48.930866 55.797535 58.540745 62.651855"
               y="0"
               id="tspan4246"
               style="font-size:12.34568024px;font-variant:normal;font-weight:normal;writing-mode:lr-tb;fill:#000000;fill-opacity:1;fill-rule:nonzero;stroke:none;font-family:Helvetica;-inkscape-font-specification:Helvetica">Timer Expiry</tspan></text>
</g></g></g><g
       id="g4248"><g
         clip-path="url(#clipPath4252)"
         id="g4250"><g
           transform="translate(257.1251,244.4631)"
           id="g4256"><text
             transform="scale(1,-1)"
             id="text4258"><tspan
               x="0 7.3369999 12.837 18.337 21.392799 27.511 36.674 39.729801 45.229801 51.348 56.848 62.966202 69.084396 75.202599 81.320801 87.439003"
               y="0"
               id="tspan4260"
               style="font-size:11px;font-variant:normal;font-weight:normal;writing-mode:lr-tb;fill:#000000;fill-opacity:1;fill-rule:nonzero;stroke:none;font-family:Helvetica;-inkscape-font-specification:Helvetica">System suspended</tspan></text>
</g></g></g><g
       id="g4262"><g
         clip-path="url(#clipPath4266)"
         id="g4264"><g
           clip-path="url(#clipPath4272)"
           id="g4270"><g
             transform="translate(163.8542,166.7298)"
             id="g4276"><text
               transform="scale(1,-1)"
               id="text4278"><tspan
                 x="0 3.6630001 11.6072 17.725401 20.7812 26.899401 29.9552 37.292198 40.155499 46.471699 48.915901 58.078899 64.197098 67.8601 70.915901 76.415901 82.534103 88.652298 94.7705 100.8887"
                 y="0"
                 id="tspan4280"
                 style="font-size:11px;font-variant:normal;font-weight:normal;writing-mode:lr-tb;fill:#000000;fill-opacity:1;fill-rule:nonzero;stroke:none;font-family:Helvetica;-inkscape-font-specification:Helvetica">“Date &amp; Time” change</tspan></text>
</g></g></g></g><g
       id="g4282"><g
         clip-path="url(#clipPath4286)"
         id="g4284"><g
           clip-path="url(#clipPath4292)"
           id="g4290"><g
             transform="matrix(0,1,1,0,217.8557,181.2)"
             id="g4296"><path
               d="m 0,0 23.11295,0 1,0"
               id="path4298"
               style="fill:none;stroke:#7f7f7f;stroke-width:2;stroke-linecap:butt;stroke-linejoin:miter;stroke-miterlimit:4;stroke-opacity:1;stroke-dasharray:none" /></g><path
             d="m 222.6557,204.3129 -4.8,9.6 -4.8,-9.6 9.6,0 z"
             id="path4300"
             style="fill:#7f7f7f;fill-opacity:1;fill-rule:nonzero;stroke:none" /></g></g></g></g></svg>